<?xml version="1.0" standalone="no"?>
<!DOCTYPE svg PUBLIC "-//W3C//DTD SVG 20010904//EN"
 "http://www.w3.org/TR/2001/REC-SVG-20010904/DTD/svg10.dtd">
<svg version="1.0" xmlns="http://www.w3.org/2000/svg"
 width="600.000000pt" height="600.000000pt" viewBox="0 0 600.000000 600.000000"
 preserveAspectRatio="xMidYMid meet">
<metadata>
Created by potrace 1.14, written by Peter Selinger 2001-2017
</metadata>
<g transform="translate(0.000000,600.000000) scale(0.100000,-0.100000)"
fill="#000000" stroke="none">
<path d="M2929 5396 c-2 -2 -44 -6 -92 -10 -48 -4 -93 -9 -100 -11 -7 -2 -30
-6 -52 -9 -60 -8 -91 -15 -201 -41 -497 -121 -981 -424 -1307 -818 -73 -88
-207 -271 -207 -282 0 -3 -17 -31 -37 -62 -41 -65 -138 -264 -176 -363 -21
-56 -45 -128 -87 -265 -9 -30 -38 -169 -45 -215 -2 -14 -7 -45 -10 -70 -3 -25
-8 -58 -11 -75 -10 -55 -12 -449 -3 -520 47 -361 118 -600 258 -879 126 -249
258 -432 456 -633 66 -67 158 -152 205 -189 285 -227 632 -398 981 -483 139
-33 146 -35 349 -60 71 -9 461 -6 525 4 22 3 51 8 65 10 442 63 870 249 1215
526 158 128 334 312 458 480 216 294 382 689 441 1049 2 14 7 41 10 60 3 19 8
51 11 70 3 19 8 127 10 240 4 199 -7 352 -35 490 -6 30 -13 70 -16 89 -16 97
-95 340 -156 481 -63 144 -184 352 -277 475 -104 139 -285 332 -399 427 -98
81 -244 184 -343 243 -50 29 -254 132 -315 158 -152 64 -445 143 -609 163 -27
3 -61 8 -75 10 -32 6 -426 15 -431 10z m371 -496 c3 -5 39 -10 80 -11 41 -1
77 -5 80 -10 3 -4 28 -8 55 -10 28 -1 59 -7 70 -13 11 -5 25 -9 32 -8 6 1 14
-2 18 -8 3 -5 19 -10 35 -10 15 0 30 -5 32 -10 2 -6 20 -12 41 -13 20 -1 37
-4 37 -7 0 -7 52 -30 80 -35 12 -2 34 -12 49 -22 14 -10 30 -16 35 -15 5 2 12
-1 15 -5 10 -14 68 -43 74 -37 3 3 8 -5 12 -18 4 -13 11 -25 16 -28 4 -3 -14
-29 -40 -57 -27 -29 -50 -50 -53 -48 -3 3 -11 -6 -18 -20 -7 -13 -22 -27 -32
-31 -11 -3 -17 -8 -15 -11 7 -6 -104 -113 -117 -113 -5 0 -7 -3 -3 -6 8 -8
-25 -44 -35 -38 -4 3 -8 0 -8 -5 0 -43 -112 -77 -145 -45 -8 9 -15 13 -15 9 0
-3 -8 -1 -17 4 -10 5 -32 11 -50 14 -17 3 -36 8 -41 11 -5 3 -37 6 -70 7 -34
1 -62 6 -62 10 0 13 -297 11 -305 -1 -3 -5 -35 -10 -70 -10 -35 0 -66 -4 -69
-8 -2 -4 -19 -9 -38 -10 -18 -2 -35 -7 -36 -12 -2 -6 -7 -8 -12 -5 -5 3 -14
-1 -22 -8 -7 -8 -29 -14 -47 -15 -19 0 -38 -7 -42 -14 -5 -7 -9 -9 -9 -4 0 4
-11 1 -25 -8 -14 -9 -25 -14 -25 -11 0 4 -7 -1 -16 -9 -8 -9 -26 -16 -38 -16
-13 0 -29 -7 -36 -15 -15 -19 -68 -45 -90 -45 -9 0 -29 -14 -44 -30 -15 -17
-31 -28 -35 -25 -5 3 -12 -2 -15 -11 -3 -8 -10 -13 -15 -10 -4 3 -19 -3 -31
-14 -13 -11 -27 -20 -32 -20 -5 0 -55 -45 -110 -100 -56 -55 -106 -100 -111
-100 -6 0 -8 -3 -4 -6 3 -3 -15 -26 -40 -50 -25 -25 -43 -48 -40 -51 3 -3 -6
-16 -21 -30 -15 -14 -25 -27 -24 -30 2 -2 -7 -17 -21 -32 -13 -15 -32 -46 -42
-69 -11 -23 -22 -42 -27 -42 -4 0 -7 -3 -6 -7 1 -5 -7 -26 -17 -48 -18 -40
-21 -48 -23 -73 -1 -7 -6 -11 -10 -8 -14 9 -63 -124 -64 -174 -1 -17 -5 -33
-10 -36 -4 -3 -8 -15 -8 -27 0 -13 -7 -32 -15 -43 -8 -12 -11 -24 -8 -28 3 -3
1 -6 -5 -6 -9 0 -12 -61 -12 -230 0 -169 3 -230 12 -230 6 0 9 -2 6 -6 -3 -3
-1 -22 4 -42 5 -20 11 -53 14 -72 3 -19 9 -39 13 -45 8 -9 12 -29 25 -104 3
-13 8 -27 13 -30 4 -3 10 -17 12 -31 1 -13 12 -32 24 -42 11 -10 17 -18 14
-18 -12 0 34 -78 48 -84 8 -3 12 -11 10 -18 -3 -7 4 -19 15 -26 11 -7 20 -8
20 -3 0 5 9 13 21 16 11 4 19 9 16 11 -6 7 267 281 276 276 4 -2 7 1 7 5 0 10
147 163 152 158 2 -2 14 12 28 31 14 18 31 34 38 34 6 0 12 4 12 9 0 12 118
131 130 131 6 0 10 5 10 10 0 6 118 10 333 10 312 0 334 -1 348 -19 15 -17 14
-21 -21 -59 -21 -22 -41 -38 -44 -35 -3 4 -6 1 -6 -6 0 -14 -25 -42 -32 -36
-3 3 -11 -6 -18 -20 -7 -13 -22 -27 -32 -31 -11 -3 -17 -8 -15 -11 6 -5 -15
-28 -57 -60 -16 -13 -26 -23 -23 -23 2 0 -61 -67 -142 -148 -80 -81 -149 -146
-153 -144 -5 2 -8 -2 -8 -8 0 -14 -26 -41 -32 -35 -3 3 -11 -6 -18 -20 -7 -13
-22 -27 -32 -31 -11 -3 -17 -8 -15 -10 6 -6 -86 -102 -94 -98 -3 2 -12 -8 -19
-21 -7 -14 -22 -27 -32 -31 -11 -3 -17 -8 -15 -11 6 -5 -15 -28 -57 -60 -16
-13 -26 -23 -23 -23 2 0 -61 -67 -142 -148 -80 -81 -149 -146 -153 -144 -5 2
-8 -2 -8 -8 0 -14 -26 -41 -32 -35 -3 3 -11 -6 -18 -20 -7 -13 -22 -27 -32
-31 -11 -3 -17 -8 -15 -11 3 -2 -16 -25 -41 -50 -39 -38 -54 -46 -89 -48 l-43
-3 -150 150 c-82 83 -150 156 -150 162 0 7 -9 19 -20 29 -11 9 -20 23 -20 30
0 8 -12 25 -27 39 -26 23 -63 80 -62 95 0 3 -5 9 -13 14 -7 5 -13 12 -13 16
-1 4 -6 18 -13 31 -7 12 -9 22 -5 22 4 0 -2 7 -13 16 -10 8 -13 12 -6 9 11 -6
11 -3 0 14 -7 12 -16 21 -20 21 -5 0 -8 7 -8 15 0 14 -18 53 -30 65 -3 3 -7
14 -8 25 -2 11 -11 28 -19 37 -9 10 -17 30 -19 44 -1 15 -6 30 -11 33 -4 3
-10 17 -11 31 -2 14 -8 30 -13 36 -5 7 -9 16 -8 20 4 25 -2 64 -10 60 -11 -7
-21 24 -28 84 -3 25 -9 49 -14 55 -5 5 -9 33 -9 62 0 29 -4 53 -10 53 -12 0
-13 580 0 595 5 6 10 29 11 50 1 22 6 45 10 50 4 6 8 28 10 50 1 22 6 45 10
50 4 6 9 26 10 45 2 19 7 37 10 40 4 3 9 19 10 35 2 17 16 54 31 84 16 29 28
61 28 70 0 9 4 21 9 27 4 5 17 31 27 59 10 27 27 58 37 68 10 10 15 22 12 27
-4 6 -1 10 4 10 6 0 11 6 11 14 0 8 7 21 15 30 9 8 15 17 14 18 -5 8 42 85 60
97 11 8 18 18 16 22 -3 3 7 19 22 35 15 16 26 31 25 34 -1 3 3 12 10 20 7 9
26 34 42 58 16 23 32 39 37 36 5 -3 9 -2 9 3 1 14 67 83 74 76 3 -3 6 -1 6 4
0 13 170 183 183 183 4 0 17 9 29 20 12 10 25 17 30 14 4 -3 8 -1 8 4 0 5 11
15 25 22 13 7 23 18 22 23 -1 6 3 11 8 12 17 0 125 56 125 64 0 6 44 26 64 28
5 1 12 6 15 11 3 6 13 12 21 14 8 2 21 9 28 16 8 7 18 10 23 6 5 -3 12 2 15
10 3 9 15 16 25 16 10 0 19 4 19 8 0 4 12 9 26 10 15 1 33 7 41 13 7 7 16 9
20 6 3 -4 12 -2 19 4 7 5 25 12 40 15 16 3 31 8 34 12 3 4 21 9 40 11 19 1 40
6 45 11 10 7 41 14 115 26 19 3 37 8 40 12 3 5 25 9 50 11 25 1 49 7 54 12 12
11 469 10 476 -1z m1082 -444 c10 -5 15 -12 12 -17 -3 -5 -1 -9 3 -9 13 0 122
-108 115 -114 -3 -3 0 -6 7 -6 16 0 42 -26 34 -34 -4 -3 -2 -6 4 -6 13 0 113
-98 113 -111 0 -5 5 -9 10 -9 6 0 10 -4 10 -10 0 -5 7 -18 15 -27 8 -10 15
-21 15 -25 0 -4 11 -19 25 -34 13 -14 23 -30 22 -34 -1 -4 8 -17 21 -28 13
-11 23 -23 22 -27 -2 -10 25 -65 32 -65 5 0 8 -7 8 -15 0 -8 4 -15 9 -15 10 0
21 -27 20 -44 0 -5 3 -12 8 -15 9 -7 45 -69 42 -73 -5 -7 26 -78 34 -78 5 0 7
-6 4 -12 -2 -7 0 -21 5 -31 5 -10 12 -31 14 -45 3 -15 8 -29 12 -32 4 -3 9
-16 10 -30 2 -14 7 -29 11 -35 4 -5 8 -23 9 -40 1 -16 7 -34 12 -39 6 -6 10
-25 10 -43 0 -18 3 -33 8 -33 4 0 8 -17 10 -37 1 -20 6 -40 11 -43 12 -7 14
-636 2 -658 -5 -10 -10 -33 -12 -52 -2 -19 -6 -40 -10 -45 -4 -6 -9 -24 -12
-40 -2 -17 -7 -37 -10 -45 -4 -8 -8 -26 -9 -40 -2 -14 -7 -30 -10 -36 -4 -6
-8 -27 -10 -47 -1 -21 -6 -37 -10 -37 -4 0 -8 -9 -8 -21 0 -11 -13 -46 -30
-76 -16 -30 -30 -60 -30 -68 0 -7 -5 -15 -11 -17 -5 -2 -12 -17 -13 -33 -2
-16 -9 -31 -15 -33 -6 -2 -9 -7 -6 -12 3 -4 -2 -13 -10 -20 -7 -6 -11 -18 -8
-26 3 -7 -2 -17 -11 -20 -9 -3 -14 -9 -12 -13 3 -4 -6 -20 -19 -35 -14 -16
-27 -37 -30 -47 -4 -11 -11 -19 -16 -19 -5 0 -9 -9 -9 -19 0 -10 -7 -21 -15
-25 -8 -3 -15 -9 -14 -13 4 -21 -3 -32 -22 -38 -11 -4 -18 -9 -15 -12 3 -3 -6
-16 -19 -29 -14 -13 -25 -30 -25 -38 0 -8 -9 -18 -20 -21 -11 -4 -19 -9 -17
-13 5 -9 -71 -81 -78 -74 -3 3 -5 0 -5 -6 0 -15 -37 -52 -52 -52 -6 0 -8 -3
-5 -6 7 -8 -42 -54 -57 -54 -5 0 -6 -3 -3 -6 4 -4 -12 -24 -35 -45 -23 -21
-44 -36 -47 -34 -2 3 -14 -5 -26 -18 -11 -12 -27 -23 -33 -25 -7 -1 -26 -14
-43 -30 -17 -15 -34 -27 -37 -26 -4 0 -13 -6 -21 -13 -7 -8 -20 -12 -27 -9 -8
3 -14 -1 -14 -9 0 -8 -8 -15 -18 -15 -10 0 -24 -9 -32 -19 -7 -11 -17 -18 -21
-15 -4 2 -13 -1 -21 -8 -7 -7 -20 -14 -28 -16 -8 -2 -17 -8 -18 -13 -2 -5 -8
-7 -13 -3 -5 3 -16 -2 -25 -10 -9 -9 -19 -14 -24 -11 -4 3 -11 -2 -14 -11 -3
-8 -10 -13 -15 -10 -5 4 -15 1 -23 -6 -7 -7 -24 -15 -38 -17 -14 -1 -28 -8
-31 -13 -4 -6 -11 -8 -16 -5 -5 3 -22 -1 -37 -9 -16 -7 -34 -14 -41 -14 -6 0
-27 -8 -46 -17 -19 -10 -43 -19 -54 -20 -11 -2 -27 -6 -35 -10 -8 -3 -37 -8
-65 -10 -27 -3 -57 -8 -65 -13 -8 -4 -46 -8 -85 -9 -38 -2 -72 -7 -75 -11 -8
-12 -400 -11 -400 1 0 5 -38 9 -84 9 -47 0 -88 5 -91 10 -3 6 -25 10 -49 10
-23 0 -46 4 -52 9 -5 5 -25 11 -44 13 -19 2 -41 8 -48 15 -7 7 -19 10 -26 7
-8 -3 -17 -1 -21 5 -3 6 -19 11 -36 11 -16 0 -29 5 -29 10 0 6 -11 10 -24 10
-13 0 -29 7 -36 15 -7 8 -16 12 -21 9 -5 -3 -16 2 -25 10 -9 9 -20 14 -25 11
-5 -3 -19 0 -31 7 -13 7 -26 11 -30 10 -5 -1 -8 3 -8 8 0 6 -9 10 -19 10 -10
0 -22 7 -25 16 -3 8 -10 13 -15 9 -14 -8 -26 15 -26 49 0 22 17 46 75 105 41
43 78 76 83 74 4 -2 7 0 7 5 0 18 73 83 86 78 8 -3 14 -1 14 4 0 5 13 23 29
39 16 17 32 39 36 50 7 24 5 23 68 26 26 2 47 -1 47 -6 0 -5 9 -9 19 -9 11 0
35 -9 54 -20 18 -11 46 -21 60 -22 15 -1 27 -6 27 -10 0 -4 38 -8 84 -8 47 0
88 -4 91 -10 8 -12 142 -13 149 -1 3 5 43 9 88 10 48 1 85 6 89 13 4 6 14 8
22 5 8 -3 24 1 36 9 11 8 21 13 21 9 0 -3 12 1 28 8 15 7 44 15 65 16 21 1 46
9 55 17 10 8 21 14 26 13 5 0 12 5 16 12 5 7 17 13 28 14 11 1 27 7 36 14 9 8
16 10 16 6 0 -4 11 0 25 9 14 9 25 14 25 11 0 -3 9 4 20 15 11 11 34 23 50 27
17 3 30 10 30 15 0 5 4 6 10 3 5 -3 23 7 39 24 16 16 32 27 35 24 3 -4 6 -1 6
5 0 7 4 12 10 12 5 0 19 8 30 18 11 9 24 17 28 16 4 0 26 19 49 42 23 23 44
39 47 37 2 -3 7 5 11 16 3 12 13 21 21 21 8 0 13 4 10 8 -6 10 30 43 38 35 3
-4 6 0 6 8 0 8 13 23 29 34 17 11 28 21 26 23 -2 2 12 19 31 39 19 19 34 41
34 49 0 9 5 12 10 9 6 -3 10 0 10 7 0 8 9 20 19 28 11 7 18 16 16 20 -2 3 7
19 21 35 13 15 24 34 24 42 0 7 5 13 12 13 6 0 8 3 5 7 -7 6 27 67 50 91 7 8
11 17 8 22 -3 5 -1 10 4 12 5 1 11 14 13 28 1 14 9 31 16 38 7 8 10 17 7 22
-3 5 -1 10 5 12 6 2 11 20 13 41 2 20 11 43 19 50 9 6 18 26 19 42 2 17 7 35
11 41 4 6 9 32 9 57 1 26 6 47 11 47 18 0 -2 566 -21 580 -3 3 -8 16 -10 30
-1 14 -6 27 -10 30 -3 3 -7 16 -9 30 -1 14 -7 27 -12 28 -6 2 -8 7 -5 12 3 5
-1 14 -8 22 -7 7 -13 23 -14 35 -1 12 -11 33 -23 45 -11 12 -19 27 -16 34 2 6
-6 24 -20 40 -13 16 -23 33 -24 37 0 4 -9 18 -21 30 l-20 22 -18 -22 c-10 -12
-21 -20 -24 -17 -3 3 -8 -3 -11 -14 -4 -10 -18 -25 -31 -32 -14 -7 -23 -15
-20 -18 6 -7 -22 -32 -36 -32 -7 0 -10 -2 -7 -5 7 -7 -285 -302 -294 -297 -5
2 -8 -1 -8 -6 0 -13 -148 -161 -154 -154 -3 3 -6 0 -6 -7 0 -14 -25 -42 -32
-36 -3 3 -10 -6 -17 -19 -7 -13 -24 -29 -38 -35 -30 -14 -683 -16 -683 -2 0 5
-2 16 -5 23 -6 14 137 168 156 168 5 0 9 6 9 13 0 6 16 23 34 37 19 14 33 26
31 28 -5 5 350 358 358 354 4 -2 7 1 7 5 0 10 147 163 152 158 2 -2 14 12 28
31 14 18 31 34 38 34 6 0 12 4 12 9 0 9 237 250 242 246 2 -2 14 12 28 31 14
18 31 34 38 34 6 0 12 4 12 9 0 11 157 170 163 165 2 -2 9 6 16 19 30 55 96
78 153 53z"/>
</g>
</svg>
